<?xml version="1.0" encoding="utf-8"?>
<!-- Generator: Adobe Illustrator 18.1.1, SVG Export Plug-In . SVG Version: 6.00 Build 0)  -->
<!DOCTYPE svg PUBLIC "-//W3C//DTD SVG 1.1//EN" "http://www.w3.org/Graphics/SVG/1.1/DTD/svg11.dtd">
<svg version="1.1" id="Layer_1" xmlns="http://www.w3.org/2000/svg" xmlns:xlink="http://www.w3.org/1999/xlink" x="0px" y="0px"
	 viewBox="0 0 612 792" enable-background="new 0 0 612 792" xml:space="preserve">
<g>
	<g>
		<path fill="#FFFFFF" stroke="#000000" stroke-width="4" stroke-miterlimit="10" d="M178.3,305.2"/>
		<path stroke="#FFFFFF" stroke-width="4" stroke-miterlimit="10" d="M443.8,518c-35.4,21.4-101.4-29.1-147.4-112.9
			s-54.8-169-19.4-190.4s101.4,29.1,147.4,112.9S479.1,496.6,443.8,518z"/>
		<polygon fill="#FFFFFF" points="383.3,219.2 232,310.8 193.1,240 344.3,148.3 		"/>
	</g>
	<g>
		<path fill="#FFFFFF" stroke="#000000" stroke-width="4" stroke-miterlimit="10" d="M90.7,130.5"/>
		<path stroke="#FFFFFF" stroke-width="4" stroke-miterlimit="10" d="M134.9,478.1c-39.4-11.1-52.1-95.8-28.2-189.2
			s75.1-160.2,114.6-149.1s52.1,95.8,28.2,189.2S174.3,489.2,134.9,478.1z"/>
		<polygon fill="#FFFFFF" points="293.6,221.8 124.9,174.4 145.1,95.4 313.8,142.8 		"/>
	</g>
	<line fill="none" stroke="#000000" stroke-width="6" stroke-miterlimit="10" x1="317.1" y1="216.7" x2="360.1" y2="140.5"/>
	<line fill="none" stroke="#000000" stroke-width="6" stroke-miterlimit="10" x1="352.5" y1="224.3" x2="384.8" y2="195.4"/>
	<line fill="none" stroke="#000000" stroke-width="6" stroke-miterlimit="10" x1="298" y1="200.8" x2="294.2" y2="156.6"/>
	<g>
		<path stroke="#000000" stroke-width="4" stroke-miterlimit="10" d="M84.3,654.1"/>
		<polygon points="120.1,479.1 140.5,484.8 103,631.9 82.6,626.2 		"/>
		<polygon points="38.8,613.8 146.9,644.3 142.5,661.4 34.4,631 		"/>
	</g>
	<g>
		<path stroke="#000000" stroke-width="4" stroke-miterlimit="10" d="M531.4,675.8"/>
		<polygon points="438.9,525.5 457.2,514.5 529.7,646.3 511.4,657.4 		"/>
		<polygon points="472.2,681.3 569.2,622.5 577.6,637.9 480.7,696.6 		"/>
	</g>
</g>
</svg>
