<?xml version="1.0" encoding="utf-8"?>
<!-- Generator: Adobe Illustrator 18.1.1, SVG Export Plug-In . SVG Version: 6.00 Build 0)  -->
<!DOCTYPE svg PUBLIC "-//W3C//DTD SVG 1.1//EN" "http://www.w3.org/Graphics/SVG/1.1/DTD/svg11.dtd">
<svg version="1.1" id="Layer_1" xmlns="http://www.w3.org/2000/svg" xmlns:xlink="http://www.w3.org/1999/xlink" x="0px" y="0px"
	 viewBox="0 0 612 792" enable-background="new 0 0 612 792" xml:space="preserve">
<g>
	<g>
		<g>
			<rect x="251.1" y="343.9" transform="matrix(0.7071 -0.7071 0.7071 0.7071 -160.8401 318.8667)" width="106.8" height="19.3"/>
			<rect x="251.1" y="343.9" transform="matrix(-0.7071 -0.7071 0.7071 -0.7071 269.7683 818.9108)" width="106.8" height="19.3"/>
		</g>
		<rect x="254.3" y="346.5" fill="#FFFFFF" width="102.8" height="54.5"/>
	</g>
	<g>
		<g>
			<path d="M245.1,467.7c0,2.2,1.8,4,4,4h111.3c2.2,0,4-1.8,4-4v-74.7c0-2.2-1.8-4-4-4H249.1c-2.2,0-4,1.8-4,4V467.7z"/>
			<path fill="none" stroke="#000000" stroke-width="4" stroke-miterlimit="10" d="M245.1,467.7c0,2.2,1.8,4,4,4h111.3
				c2.2,0,4-1.8,4-4v-74.7c0-2.2-1.8-4-4-4H249.1c-2.2,0-4,1.8-4,4V467.7z"/>
		</g>
		<rect x="298.7" y="369" fill="#FFFFFF" width="14" height="114.3"/>
		<g>
			<path d="M234.2,375.1c0,2.2,1.8,4,4,4h134.9c2.2,0,4-1.8,4-4v-16.7c0-2.2-1.8-4-4-4H238.2c-2.2,0-4,1.8-4,4V375.1z"/>
			<path fill="none" stroke="#000000" stroke-width="4" stroke-miterlimit="10" d="M234.2,375.1c0,2.2,1.8,4,4,4h134.9
				c2.2,0,4-1.8,4-4v-16.7c0-2.2-1.8-4-4-4H238.2c-2.2,0-4,1.8-4,4V375.1z"/>
		</g>
		<rect x="297.8" y="350.3" fill="#FFFFFF" width="14" height="35.6"/>
	</g>
</g>
</svg>
