<?xml version="1.0" encoding="utf-8"?>
<!-- Generator: Adobe Illustrator 18.1.1, SVG Export Plug-In . SVG Version: 6.00 Build 0)  -->
<!DOCTYPE svg PUBLIC "-//W3C//DTD SVG 1.1//EN" "http://www.w3.org/Graphics/SVG/1.1/DTD/svg11.dtd">
<svg version="1.1" id="Layer_1" xmlns="http://www.w3.org/2000/svg" xmlns:xlink="http://www.w3.org/1999/xlink" x="0px" y="0px"
	 viewBox="0 0 612 792" enable-background="new 0 0 612 792" xml:space="preserve">
<g>
	<g>
		<g>
			<rect x="118.9" y="217" transform="matrix(-0.7071 0.7071 -0.7071 -0.7071 692.2571 213.3358)" width="366.1" height="66.2"/>
			<rect x="118.9" y="217.1" transform="matrix(0.7071 0.7071 -0.7071 0.7071 265.3568 -140.1813)" width="366.1" height="66.2"/>
		</g>
		<rect x="130" y="225.9" fill="#FFFFFF" width="352.4" height="186.8"/>
	</g>
	<g>
		<g>
			<path d="M98.5,641.3c0,7.5,6.2,13.7,13.7,13.7h381.5c7.5,0,13.7-6.2,13.7-13.7v-256c0-7.5-6.2-13.7-13.7-13.7H112.2
				c-7.5,0-13.7,6.2-13.7,13.7V641.3z"/>
			<path fill="none" stroke="#000000" stroke-width="4" stroke-miterlimit="10" d="M98.5,641.3c0,7.5,6.2,13.7,13.7,13.7h381.5
				c7.5,0,13.7-6.2,13.7-13.7v-256c0-7.5-6.2-13.7-13.7-13.7H112.2c-7.5,0-13.7,6.2-13.7,13.7V641.3z"/>
		</g>
		<rect x="282.2" y="303" fill="#FFFFFF" width="48" height="391.8"/>
		<g>
			<path d="M61.1,323.9c0,7.5,6.2,13.7,13.7,13.7h462.4c7.5,0,13.7-6.2,13.7-13.7v-57.2c0-7.5-6.2-13.7-13.7-13.7H74.8
				c-7.5,0-13.7,6.2-13.7,13.7V323.9z"/>
			<path fill="none" stroke="#000000" stroke-width="4" stroke-miterlimit="10" d="M61.1,323.9c0,7.5,6.2,13.7,13.7,13.7h462.4
				c7.5,0,13.7-6.2,13.7-13.7v-57.2c0-7.5-6.2-13.7-13.7-13.7H74.8c-7.5,0-13.7,6.2-13.7,13.7V323.9z"/>
		</g>
		<rect x="279.1" y="238.9" fill="#FFFFFF" width="48" height="122"/>
	</g>
</g>
</svg>
